<?xml version="1.0" standalone="no"?>
<!DOCTYPE svg PUBLIC "-//W3C//DTD SVG 20010904//EN"
 "http://www.w3.org/TR/2001/REC-SVG-20010904/DTD/svg10.dtd">
<svg version="1.0" xmlns="http://www.w3.org/2000/svg"
 width="512.000000pt" height="512.000000pt" viewBox="0 0 512.000000 512.000000"
 preserveAspectRatio="xMidYMid meet">

<g transform="translate(0.000000,512.000000) scale(0.100000,-0.100000)"
fill="#000000" stroke="none">
<path d="M0 2560 l0 -2560 2560 0 2560 0 0 2560 0 2560 -2560 0 -2560 0 0
-2560z m3640 1230 l0 -310 -770 0 -770 0 0 -310 0 -310 465 0 465 0 0 -305 0
-305 -465 0 -465 0 0 -620 0 -620 -307 2 -308 3 -3 1530 c-1 842 0 1536 3
1543 3 9 229 12 1080 12 l1075 0 0 -310z"/>
</g>
</svg>
