<?xml version="1.0" standalone="no"?>
<!DOCTYPE svg PUBLIC "-//W3C//DTD SVG 20010904//EN"
 "http://www.w3.org/TR/2001/REC-SVG-20010904/DTD/svg10.dtd">
<svg version="1.0" xmlns="http://www.w3.org/2000/svg"
 width="512.000000pt" height="512.000000pt" viewBox="0 0 512.000000 512.000000"
 preserveAspectRatio="xMidYMid meet">

<g transform="translate(0.000000,512.000000) scale(0.100000,-0.100000)"
fill="#000000" stroke="none">
<path d="M89 4124 c-19 -8 -44 -29 -55 -47 -19 -31 -19 -63 -19 -1517 0 -1627
-4 -1518 58 -1564 28 -20 38 -21 435 -21 374 0 410 1 440 18 62 34 62 37 62
547 l0 460 410 0 c455 0 464 1 497 62 16 30 18 63 18 358 0 295 -2 328 -18
358 -33 61 -42 62 -497 62 l-410 0 0 230 0 230 583 1 c423 0 591 3 617 12 19
7 44 27 57 46 23 34 23 37 23 360 0 309 -1 328 -20 359 -40 65 15 62 -1117 61
-883 0 -1033 -2 -1064 -15z"/>
<path d="M3376 4129 c-232 -30 -415 -115 -540 -250 -158 -171 -193 -332 -183
-844 6 -281 15 -354 57 -468 59 -157 213 -280 440 -351 59 -19 204 -44 475
-82 214 -30 405 -61 423 -69 88 -40 81 -220 -9 -252 -25 -9 -202 -12 -662 -12
-693 -1 -669 1 -704 -64 -16 -29 -18 -65 -18 -347 0 -344 1 -352 58 -394 28
-21 32 -21 845 -21 815 0 817 0 922 23 196 43 336 118 451 240 73 77 118 155
150 262 22 71 23 95 27 450 3 342 2 384 -16 471 -43 210 -138 327 -344 424
-126 59 -224 80 -628 135 -231 31 -394 58 -407 66 -59 37 -79 145 -37 201 40
54 28 53 617 53 585 0 588 0 632 50 19 21 20 38 23 364 3 340 3 343 -19 370
-45 57 -28 56 -786 55 -384 -1 -729 -6 -767 -10z"/>
</g>
</svg>
